<svg width="406" height="407" viewBox="0 0 406 407" fill="none" xmlns="http://www.w3.org/2000/svg">
<path d="M42.2583 92.1832V191.785C42.2583 199.221 44.7008 206.453 49.214 212.365L147.059 340.574C150.254 344.766 155.215 347.222 160.48 347.222H244.582C251.64 347.222 255.586 339.067 251.217 333.511L57.3445 86.941C52.3834 80.6317 42.2583 84.1463 42.2583 92.1832Z" fill="#FF4654"/>
<path d="M230.265 240.422L348.284 87.39C353.212 80.9876 363.421 84.4852 363.421 92.5645V198.129C363.421 201.474 362.432 204.743 360.582 207.52L334.635 246.528C331.499 251.237 326.217 254.065 320.571 254.065H236.959C229.936 254.065 225.972 245.986 230.265 240.422Z" fill="#FF4654"/>
</svg>
